# xmcd
#
# Track frame offsets:
# 150
# 17380
# 30245
# 40969
# 54883
# 72102
# 82299
# 96591
# 109164
#
# Disc length: 1629 seconds
#
#
# Revision: 0
# Processed by: cddbd v1.5.1PL2 Copyright (c) Steve Scherf et al.
# Submitted via: FreeRIP 2.92 
#
DISCID=6b065b09
DTITLE=We Be The Echo - Stanislaw Stories
DYEAR=2006
DGENRE=experimental math rock
TTITLE0=Disco Fever Blister
TTITLE1=Hymns and Hearse
TTITLE2=Dry or Damp, I'm Still the Champ
TTITLE3=Don't Concentrate On the Finger...or You'll Miss the Heavenly Glory
TTITLE4=That's No Goon, That's A Space Station
TTITLE5=Drain In Flood
TTITLE6=Supermodel Snakepit
TTITLE7=Tooth Sea
TTITLE8=Constellation Sandwich
EXTD=ripped/spread by cleve
EXTT0=
EXTT1=
EXTT2=
EXTT3=
EXTT4=
EXTT5=
EXTT6=
EXTT7=
EXTT8=
PLAYORDER=
